<svg xmlns="http://www.w3.org/2000/svg" xmlns:xlink="http://www.w3.org/1999/xlink" width="500" zoomAndPan="magnify" viewBox="0 0 375 374.999991" height="500" preserveAspectRatio="xMidYMid meet" version="1.2"><defs><clipPath id="f468c1a205"><path d="M 49.160156 145 L 105.410156 145 L 105.410156 217 L 49.160156 217 Z M 49.160156 145 "/></clipPath><clipPath id="91f0a73181"><path d="M 65 183 L 105.410156 183 L 105.410156 209 L 65 209 Z M 65 183 "/></clipPath><clipPath id="0abcb3f264"><path d="M 65 201 L 105.410156 201 L 105.410156 227 L 65 227 Z M 65 201 "/></clipPath></defs><g id="97f5b2060a"><rect x="0" width="375" y="0" height="374.999991" style="fill:#ffffff;fill-opacity:1;stroke:none;"/><rect x="0" width="375" y="0" height="374.999991" style="fill:#ffffff;fill-opacity:1;stroke:none;"/><g clip-rule="nonzero" clip-path="url(#f468c1a205)"><path style=" stroke:none;fill-rule:nonzero;fill:#004aad;fill-opacity:1;" d="M 53.671875 214.257812 L 57.714844 216.34375 L 57.714844 165.777344 L 77.53125 154.800781 L 81.367188 156.964844 L 96.621094 165.519531 L 96.621094 169.507812 L 93.464844 171.175781 L 80.921875 177.878906 L 77.140625 179.886719 L 71.535156 176.992188 L 68.902344 175.664062 L 65.433594 173.863281 L 65.433594 183.484375 L 69.058594 185.335938 L 77.195312 189.5625 L 81 187.527344 L 93.363281 180.929688 L 102.332031 176.15625 L 105.175781 174.644531 L 105.175781 160.484375 L 81.390625 147.160156 L 77.558594 145.019531 L 49.160156 160.746094 L 49.160156 211.9375 L 53.644531 214.257812 Z M 53.671875 214.257812 "/></g><g clip-rule="nonzero" clip-path="url(#91f0a73181)"><path style=" stroke:none;fill-rule:nonzero;fill:#004aad;fill-opacity:1;" d="M 105.175781 183.640625 L 101.601562 185.546875 L 78.210938 198.039062 L 77.140625 198.609375 L 72.683594 196.316406 L 65.433594 192.5625 L 65.433594 202.183594 L 77.195312 208.257812 L 78.261719 207.6875 L 105.175781 193.34375 Z M 105.175781 183.640625 "/></g><g clip-rule="nonzero" clip-path="url(#0abcb3f264)"><path style=" stroke:none;fill-rule:nonzero;fill:#004aad;fill-opacity:1;" d="M 65.433594 210.710938 L 65.433594 220.332031 L 77.195312 226.410156 L 105.175781 211.492188 L 105.175781 201.792969 L 77.140625 216.761719 Z M 65.433594 210.710938 "/></g><g style="fill:#004aad;fill-opacity:1;"><g transform="translate(117.466103, 210.390893)"><path style="stroke:none" d="M 3.859375 0 L 3.859375 -49.859375 L 38.9375 -49.859375 L 38.9375 -40.34375 L 15.40625 -40.34375 L 15.40625 -29.765625 L 36.140625 -29.765625 L 36.140625 -21.296875 L 15.40625 -21.296875 L 15.40625 -9.59375 L 39.640625 -9.59375 L 39.640625 0 Z M 3.859375 0 "/></g></g><g style="fill:#004aad;fill-opacity:1;"><g transform="translate(160.255399, 210.390893)"><path style="stroke:none" d="M 3.859375 0 L 3.859375 -49.859375 L 17.859375 -49.859375 L 38.171875 -14.359375 L 38.3125 -14.359375 L 38.3125 -49.859375 L 49.65625 -49.859375 L 49.65625 0 L 35.578125 0 L 15.265625 -35.4375 L 15.125 -35.4375 L 15.125 0 Z M 3.859375 0 "/></g></g><g style="fill:#004aad;fill-opacity:1;"><g transform="translate(215.370187, 210.390893)"><path style="stroke:none" d="M 29.6875 1.75 C 24.132812 1.75 19.289062 0.640625 15.15625 -1.578125 C 11.03125 -3.796875 7.820312 -6.898438 5.53125 -10.890625 C 3.238281 -14.878906 2.09375 -19.5625 2.09375 -24.9375 C 2.09375 -30.300781 3.238281 -34.976562 5.53125 -38.96875 C 7.820312 -42.957031 11.03125 -46.0625 15.15625 -48.28125 C 19.289062 -50.5 24.132812 -51.609375 29.6875 -51.609375 C 35.289062 -51.609375 40.160156 -50.5 44.296875 -48.28125 C 48.429688 -46.0625 51.640625 -42.957031 53.921875 -38.96875 C 56.210938 -34.976562 57.359375 -30.300781 57.359375 -24.9375 C 57.359375 -19.5625 56.210938 -14.878906 53.921875 -10.890625 C 51.640625 -6.898438 48.429688 -3.796875 44.296875 -1.578125 C 40.160156 0.640625 35.289062 1.75 29.6875 1.75 Z M 29.6875 -8.546875 C 32.863281 -8.546875 35.628906 -9.222656 37.984375 -10.578125 C 40.347656 -11.929688 42.171875 -13.84375 43.453125 -16.3125 C 44.734375 -18.789062 45.375 -21.664062 45.375 -24.9375 C 45.375 -28.25 44.734375 -31.140625 43.453125 -33.609375 C 42.171875 -36.085938 40.347656 -38.003906 37.984375 -39.359375 C 35.628906 -40.710938 32.863281 -41.390625 29.6875 -41.390625 C 26.5625 -41.390625 23.816406 -40.710938 21.453125 -39.359375 C 19.097656 -38.003906 17.28125 -36.085938 16 -33.609375 C 14.71875 -31.140625 14.078125 -28.25 14.078125 -24.9375 C 14.078125 -21.664062 14.71875 -18.789062 16 -16.3125 C 17.28125 -13.84375 19.097656 -11.929688 21.453125 -10.578125 C 23.816406 -9.222656 26.5625 -8.546875 29.6875 -8.546875 Z M 29.6875 -8.546875 "/></g></g><g style="fill:#004aad;fill-opacity:1;"><g transform="translate(276.437631, 210.390893)"><path style="stroke:none" d="M 24.234375 1.75 C 20.117188 1.75 16.414062 1.109375 13.125 -0.171875 C 9.832031 -1.453125 7.171875 -3.34375 5.140625 -5.84375 C 3.109375 -8.34375 1.910156 -11.390625 1.546875 -14.984375 L 12.46875 -17.015625 C 12.84375 -14.023438 14.148438 -11.628906 16.390625 -9.828125 C 18.628906 -8.035156 21.40625 -7.140625 24.71875 -7.140625 C 27.707031 -7.140625 30.066406 -7.757812 31.796875 -9 C 33.523438 -10.238281 34.390625 -11.8125 34.390625 -13.71875 C 34.390625 -15.257812 33.734375 -16.507812 32.421875 -17.46875 C 31.117188 -18.425781 28.992188 -19.207031 26.046875 -19.8125 L 19.125 -21.15625 C 13.613281 -22.226562 9.582031 -23.90625 7.03125 -26.1875 C 4.488281 -28.476562 3.21875 -31.582031 3.21875 -35.5 C 3.21875 -38.769531 4.066406 -41.609375 5.765625 -44.015625 C 7.472656 -46.421875 9.832031 -48.285156 12.84375 -49.609375 C 15.863281 -50.941406 19.285156 -51.609375 23.109375 -51.609375 C 26.609375 -51.609375 29.769531 -51.015625 32.59375 -49.828125 C 35.425781 -48.640625 37.738281 -46.96875 39.53125 -44.8125 C 41.332031 -42.664062 42.441406 -40.144531 42.859375 -37.25 L 32.140625 -34.875 C 31.816406 -37.300781 30.8125 -39.222656 29.125 -40.640625 C 27.445312 -42.066406 25.394531 -42.78125 22.96875 -42.78125 C 20.539062 -42.78125 18.601562 -42.195312 17.15625 -41.03125 C 15.707031 -39.863281 14.984375 -38.394531 14.984375 -36.625 C 14.984375 -35.132812 15.578125 -33.941406 16.765625 -33.046875 C 17.960938 -32.160156 19.84375 -31.460938 22.40625 -30.953125 L 29.484375 -29.625 C 35.179688 -28.6875 39.359375 -27.023438 42.015625 -24.640625 C 44.679688 -22.265625 46.015625 -19.046875 46.015625 -14.984375 C 46.015625 -11.523438 45.09375 -8.535156 43.25 -6.015625 C 41.40625 -3.492188 38.847656 -1.566406 35.578125 -0.234375 C 32.304688 1.085938 28.523438 1.75 24.234375 1.75 Z M 24.234375 1.75 "/></g></g></g></svg>