<svg xmlns="http://www.w3.org/2000/svg" xmlns:xlink="http://www.w3.org/1999/xlink" width="500" zoomAndPan="magnify" viewBox="0 0 375 374.999991" height="500" preserveAspectRatio="xMidYMid meet" version="1.2"><defs><clipPath id="f04d3a04f0"><path d="M 110.773438 76 L 264.523438 76 L 264.523438 272 L 110.773438 272 Z M 110.773438 76 "/></clipPath><clipPath id="06a8ac49b1"><path d="M 155 181 L 264.523438 181 L 264.523438 250 L 155 250 Z M 155 181 "/></clipPath><clipPath id="4670bbef8d"><path d="M 155 231 L 264.523438 231 L 264.523438 299 L 155 299 Z M 155 231 "/></clipPath></defs><g id="bcba6282d8"><rect x="0" width="375" y="0" height="374.999991" style="fill:#ffffff;fill-opacity:1;stroke:none;"/><rect x="0" width="375" y="0" height="374.999991" style="fill:#ffffff;fill-opacity:1;stroke:none;"/><g clip-rule="nonzero" clip-path="url(#f04d3a04f0)"><path style=" stroke:none;fill-rule:nonzero;fill:#004aad;fill-opacity:1;" d="M 123.132812 265.6875 L 134.203125 271.402344 L 134.203125 132.886719 L 188.496094 102.8125 L 198.996094 108.742188 L 240.789062 132.171875 L 240.789062 143.101562 L 232.144531 147.675781 L 197.78125 166.03125 L 187.425781 171.535156 L 172.066406 163.605469 L 164.851562 159.960938 L 155.347656 155.03125 L 155.347656 181.390625 L 165.277344 186.464844 L 187.566406 198.035156 L 197.996094 192.464844 L 231.859375 174.390625 L 256.433594 161.316406 L 264.21875 157.175781 L 264.21875 118.386719 L 199.070312 81.882812 L 188.566406 76.023438 L 110.773438 119.097656 L 110.773438 259.328125 L 123.058594 265.6875 Z M 123.132812 265.6875 "/></g><g clip-rule="nonzero" clip-path="url(#06a8ac49b1)"><path style=" stroke:none;fill-rule:nonzero;fill:#004aad;fill-opacity:1;" d="M 264.21875 181.820312 L 254.433594 187.035156 L 190.351562 221.253906 L 187.425781 222.824219 L 175.207031 216.539062 L 155.347656 206.25 L 155.347656 232.613281 L 187.566406 249.257812 L 190.496094 247.683594 L 264.21875 208.394531 Z M 264.21875 181.820312 "/></g><g clip-rule="nonzero" clip-path="url(#4670bbef8d)"><path style=" stroke:none;fill-rule:nonzero;fill:#004aad;fill-opacity:1;" d="M 155.347656 255.972656 L 155.347656 282.332031 L 187.566406 298.976562 L 264.21875 258.113281 L 264.21875 231.539062 L 187.425781 272.542969 Z M 155.347656 255.972656 "/></g></g></svg>